<svg width="673" height="69" viewBox="0 0 673 69" fill="none" xmlns="http://www.w3.org/2000/svg">
<path d="M17.7585 68.3636H0L23.0661 1.43051e-06H45.0639L68.13 68.3636H50.3715L34.3153 17.2244H33.7812L17.7585 68.3636ZM15.3885 41.4588H52.5078V54.0099H15.3885V41.4588ZM75.4904 68.3636V1.43051e-06H103.73C108.849 1.43051e-06 113.266 0.923534 116.983 2.7706C120.721 4.59541 123.603 7.22136 125.628 10.6484C127.653 14.0533 128.666 18.0923 128.666 22.7656C128.666 27.5057 127.631 31.5336 125.561 34.8494C123.492 38.143 120.554 40.6577 116.749 42.3935C112.944 44.107 108.437 44.9638 103.23 44.9638H85.3711V31.9453H100.159C102.651 31.9453 104.732 31.6226 106.401 30.9773C108.092 30.3097 109.372 29.3082 110.24 27.973C111.108 26.6155 111.542 24.8797 111.542 22.7656C111.542 20.6515 111.108 18.9046 110.24 17.5249C109.372 16.1229 108.092 15.0769 106.401 14.3871C104.71 13.675 102.629 13.3189 100.159 13.3189H92.0139V68.3636H75.4904ZM113.978 37.1193L131.002 68.3636H112.977L96.2866 37.1193H113.978ZM137.729 68.3636V1.43051e-06H185.396V13.419H154.252V27.4389H182.96V40.8913H154.252V54.9446H185.396V68.3636H137.729ZM253.927 1.43051e-06V68.3636H239.907L212.702 28.9077H212.268V68.3636H195.744V1.43051e-06H209.964L236.869 39.3892H237.437V1.43051e-06H253.927ZM281.04 1.43051e-06L293.525 21.5973H294.059L306.677 1.43051e-06H325.17L304.54 34.1818L325.837 68.3636H306.877L294.059 46.5327H293.525L280.706 68.3636H261.88L283.077 34.1818L262.414 1.43051e-06H281.04ZM333.715 68.3636V1.43051e-06H380.381V13.419H350.238V27.4389H377.41V40.8913H350.238V68.3636H333.715ZM394.952 68.3636H377.193L400.259 1.43051e-06H422.257L445.323 68.3636H427.565L411.509 17.2244H410.975L394.952 68.3636ZM392.582 41.4588H429.701V54.0099H392.582V41.4588ZM452.684 1.43051e-06H473.146L490.504 42.3267H491.305L508.663 1.43051e-06H529.126V68.3636H513.036V26.3707H512.469L496.045 67.9297H485.764L469.341 26.1371H468.773V68.3636H452.684V1.43051e-06ZM555.955 1.43051e-06V68.3636H539.432V1.43051e-06H555.955ZM566.328 68.3636V1.43051e-06H582.852V54.9446H611.292V68.3636H566.328ZM605.884 1.43051e-06H624.344L638.798 28.6072H639.399L653.852 1.43051e-06H672.312L647.31 45.5313V68.3636H630.887V45.5313L605.884 1.43051e-06Z" fill="#272727"/>
</svg>
