<svg width="664" height="69" viewBox="0 0 664 69" fill="none" xmlns="http://www.w3.org/2000/svg">
<path d="M15.4886 68.3636H-6.64406e-05L23.6001 1.43051e-06H42.2265L65.7933 68.3636H50.3046L33.1803 15.6222H32.6462L15.4886 68.3636ZM14.5205 41.4922H51.1058V52.7749H14.5205V41.4922ZM74.0216 68.3636V1.43051e-06H100.993C106.156 1.43051e-06 110.562 0.923534 114.212 2.7706C117.884 4.59541 120.677 7.18798 122.59 10.5483C124.527 13.8864 125.495 17.8142 125.495 22.3317C125.495 26.8715 124.515 30.777 122.557 34.0483C120.599 37.2973 117.761 39.7898 114.045 41.5256C110.351 43.2614 105.878 44.1293 100.626 44.1293H82.5671V32.5128H98.2894C101.049 32.5128 103.341 32.1345 105.166 31.3778C106.991 30.6212 108.348 29.4863 109.238 27.973C110.151 26.4598 110.607 24.5793 110.607 22.3317C110.607 20.0618 110.151 18.148 109.238 16.5902C108.348 15.0324 106.979 13.853 105.132 13.0518C103.308 12.2285 101.004 11.8168 98.2226 11.8168H88.4754V68.3636H74.0216ZM110.941 37.2528L127.931 68.3636H111.975L95.3519 37.2528H110.941ZM135.709 68.3636V1.43051e-06H181.774V11.9169H150.163V28.2067H179.404V40.1236H150.163V56.4467H181.908V68.3636H135.709ZM250.447 1.43051e-06V68.3636H237.962L208.22 25.3359H207.72V68.3636H193.266V1.43051e-06H205.95L235.459 42.9943H236.06V1.43051e-06H250.447ZM275.941 1.43051e-06L289.728 23.2997H290.262L304.115 1.43051e-06H320.438L299.575 34.1818L320.905 68.3636H304.282L290.262 45.0305H289.728L275.708 68.3636H259.151L280.548 34.1818L259.551 1.43051e-06H275.941ZM329.584 68.3636V1.43051e-06H374.848V11.9169H344.038V28.2067H371.844V40.1236H344.038V68.3636H329.584ZM387.817 68.3636H372.328L395.928 1.43051e-06H414.555L438.121 68.3636H422.633L405.508 15.6222H404.974L387.817 68.3636ZM386.849 41.4922H423.434V52.7749H386.849V41.4922ZM446.35 1.43051e-06H464.175L483.002 45.9318H483.803L502.63 1.43051e-06H520.455V68.3636H506.435V23.8672H505.867L488.176 68.0298H478.629L460.937 23.7003H460.37V68.3636H446.35V1.43051e-06ZM546.817 1.43051e-06V68.3636H532.363V1.43051e-06H546.817ZM558.709 68.3636V1.43051e-06H573.163V56.4467H602.471V68.3636H558.709ZM599.317 1.43051e-06H615.506L631.095 29.4418H631.763L647.351 1.43051e-06H663.541L638.606 44.196V68.3636H624.252V44.196L599.317 1.43051e-06Z" fill="#272727"/>
</svg>
