<svg width="682" height="69" viewBox="0 0 682 69" fill="none" xmlns="http://www.w3.org/2000/svg">
<path d="M20.0283 68.3636H-0.000110909L22.5652 1.43051e-06H47.9346L70.4999 68.3636H50.4715L35.5169 18.8267H34.9828L20.0283 68.3636ZM16.2897 41.392H53.9431V55.2784H16.2897V41.392ZM77.0842 68.3636V1.43051e-06H106.593C111.667 1.43051e-06 116.106 0.923534 119.912 2.7706C123.717 4.61766 126.677 7.27699 128.791 10.7486C130.905 14.2202 131.962 18.3816 131.962 23.233C131.962 28.1288 130.872 32.2569 128.691 35.6172C126.532 38.9775 123.495 41.5144 119.578 43.228C115.683 44.9415 111.133 45.7983 105.925 45.7983H88.3001V31.3778H102.187C104.367 31.3778 106.226 31.1108 107.761 30.5767C109.319 30.0204 110.509 29.1413 111.333 27.9396C112.178 26.7379 112.601 25.169 112.601 23.233C112.601 21.2746 112.178 19.6835 111.333 18.4595C110.509 17.2133 109.319 16.3009 107.761 15.7223C106.226 15.1214 104.367 14.821 102.187 14.821H95.6439V68.3636H77.0842ZM117.141 36.9858L134.232 68.3636H114.07L97.3797 36.9858H117.141ZM139.873 68.3636V1.43051e-06H189.143V14.9545H158.433V26.7045H186.606V41.6591H158.433V53.4091H189.01V68.3636H139.873ZM257.498 1.43051e-06V68.3636H242.01L217.308 32.446H216.908V68.3636H198.348V1.43051e-06H214.104L238.405 35.7841H238.939V1.43051e-06H257.498ZM286.172 1.43051e-06L297.388 19.8949H297.922L309.272 1.43051e-06H329.968L309.539 34.1818L330.769 68.3636H309.539L297.922 48.0682H297.388L285.772 68.3636H264.675L285.638 34.1818L265.343 1.43051e-06H286.172ZM337.971 68.3636V1.43051e-06H386.039V14.9545H356.531V26.7045H383.102V41.6591H356.531V68.3636H337.971ZM402.087 68.3636H382.058L404.624 1.43051e-06H429.993L452.558 68.3636H432.53L417.576 18.8267H417.041L402.087 68.3636ZM398.348 41.392H436.002V55.2784H398.348V41.392ZM459.143 1.43051e-06H482.242L498.131 38.7216H498.933L514.822 1.43051e-06H537.921V68.3636H519.762V28.8409H519.228L504.006 67.8295H493.058L477.836 28.5739H477.302V68.3636H459.143V1.43051e-06ZM565.277 1.43051e-06V68.3636H546.717V1.43051e-06H565.277ZM574.073 68.3636V1.43051e-06H592.632V53.4091H620.271V68.3636H574.073ZM612.577 1.43051e-06H633.273L646.625 27.7727H647.16L660.512 1.43051e-06H681.208L656.106 46.8665V68.3636H637.679V46.8665L612.577 1.43051e-06Z" fill="#272727"/>
</svg>
