<svg width="664" height="69" viewBox="0 0 664 69" fill="none" xmlns="http://www.w3.org/2000/svg">
<path d="M15.4886 68.3638H-6.64406e-05L23.6001 0.00013113H42.2265L65.7933 68.3638H50.3046L33.1803 15.6223H32.6462L15.4886 68.3638ZM14.5205 41.4923H51.1058V52.775H14.5205V41.4923ZM74.0216 68.3638V0.00013113H100.993C106.156 0.00013113 110.562 0.923663 114.212 2.77073C117.884 4.59554 120.677 7.18811 122.59 10.5484C124.527 13.8865 125.495 17.8143 125.495 22.3318C125.495 26.8716 124.515 30.7771 122.557 34.0484C120.599 37.2975 117.761 39.7899 114.045 41.5257C110.351 43.2615 105.878 44.1294 100.626 44.1294H82.5671V32.5129H98.2894C101.049 32.5129 103.341 32.1346 105.166 31.378C106.991 30.6213 108.348 29.4864 109.238 27.9731C110.151 26.4599 110.607 24.5794 110.607 22.3318C110.607 20.0619 110.151 18.1481 109.238 16.5903C108.348 15.0326 106.979 13.8531 105.132 13.052C103.308 12.2286 101.004 11.8169 98.2226 11.8169H88.4754V68.3638H74.0216ZM110.941 37.253L127.931 68.3638H111.975L95.3519 37.253H110.941ZM135.709 68.3638V0.00013113H181.774V11.917H150.163V28.2068H179.404V40.1237H150.163V56.4469H181.908V68.3638H135.709ZM250.447 0.00013113V68.3638H237.962L208.22 25.3361H207.72V68.3638H193.266V0.00013113H205.95L235.459 42.9945H236.06V0.00013113H250.447ZM275.941 0.00013113L289.728 23.2998H290.262L304.115 0.00013113H320.438L299.575 34.182L320.905 68.3638H304.282L290.262 45.0307H289.728L275.708 68.3638H259.151L280.548 34.182L259.551 0.00013113H275.941ZM329.584 68.3638V0.00013113H374.848V11.917H344.038V28.2068H371.844V40.1237H344.038V68.3638H329.584ZM387.817 68.3638H372.328L395.928 0.00013113H414.555L438.121 68.3638H422.633L405.508 15.6223H404.974L387.817 68.3638ZM386.849 41.4923H423.434V52.775H386.849V41.4923ZM446.35 0.00013113H464.175L483.002 45.932H483.803L502.63 0.00013113H520.455V68.3638H506.435V23.8673H505.867L488.176 68.03H478.629L460.937 23.7004H460.37V68.3638H446.35V0.00013113ZM546.817 0.00013113V68.3638H532.363V0.00013113H546.817ZM558.709 68.3638V0.00013113H573.163V56.4469H602.471V68.3638H558.709ZM599.317 0.00013113H615.506L631.095 29.4419H631.763L647.351 0.00013113H663.541L638.606 44.1962V68.3638H624.252V44.1962L599.317 0.00013113Z" fill="#EEEEEE"/>
</svg>
